<svg width="468" height="468" viewBox="0 0 468 468" fill="none" xmlns="http://www.w3.org/2000/svg">
<g clip-path="url(#clip0_4_208)">
<path d="M369.21 166.83C379.31 187.08 385 209.88 385 234C385 317.26 317.26 385 234 385C150.74 385 83 317.26 83 234C83 209.88 88.69 187.08 98.79 166.83L32.15 115.47C11.19 151.02 0 191.65 0 234C0 296.5 24.34 355.27 68.54 399.46C112.74 443.65 171.5 468 234 468C296.5 468 355.27 443.66 399.46 399.46C443.65 355.26 468 296.5 468 234C468 191.65 456.81 151.02 435.86 115.47L369.21 166.83Z" fill="#003870"/>
<path d="M399.46 68.54C355.27 24.34 296.5 0 234 0C171.5 0 112.73 24.34 68.54 68.54C65.12 71.96 61.83 75.49 58.64 79.08L124.66 129.96C142.97 110.73 166.29 96.31 192.5 88.81V335.25C206.22 337.72 220.26 339 234.5 339C248.39 339 262.1 337.79 275.5 335.44V88.81C301.71 96.31 325.03 110.73 343.34 129.96L409.36 79.08C406.18 75.48 402.89 71.96 399.46 68.54Z" fill="#FF9400"/>
<path d="M369.21 166.83C379.31 187.08 385 209.88 385 234C385 317.26 317.26 385 234 385C150.74 385 83 317.26 83 234C83 209.88 88.69 187.08 98.79 166.83L32.15 115.47C11.19 151.02 0 191.65 0 234C0 296.5 24.34 355.27 68.54 399.46C112.74 443.65 171.5 468 234 468C296.5 468 355.27 443.66 399.46 399.46C443.65 355.26 468 296.5 468 234C468 191.65 456.81 151.02 435.86 115.47L369.21 166.83Z" fill="#003870"/>
<path d="M399.46 68.54C355.27 24.34 296.5 0 234 0C171.5 0 112.73 24.34 68.5399 68.54C65.1199 71.96 61.8299 75.49 58.6399 79.08L124.66 129.96C142.97 110.73 166.29 96.31 192.5 88.81V335.25C206.22 337.72 220.26 339 234.5 339C248.39 339 262.1 337.79 275.5 335.44V88.81C301.71 96.31 325.03 110.73 343.34 129.96L409.36 79.08C406.18 75.48 402.89 71.96 399.46 68.54Z" fill="#FF9400"/>
</g>
<defs>
<clipPath id="clip0_4_208">
<rect width="468" height="468" fill="white"/>
</clipPath>
</defs>
</svg>
